<svg version="1.1" xmlns="http://www.w3.org/2000/svg" xmlns:xlink="http://www.w3.org/1999/xlink" x="0px" y="0px" viewBox="0 0 1000 1000" enable-background="new 0 0 1000 1000" xml:space="preserve" fill="white">
<g><g transform="translate(0.000000,512.000000) scale(0.100000,-0.100000)"><path d="M8879.7,5013.1c-23-9.6-126.6-84.4-230.1-166.9C7801.9,4171.2,6726,3630.4,5717.3,3373.4c-684.7-176.4-571.5-168.8-3018.6-180.3l-2157.5-11.5l-95.9-47.9c-122.7-59.5-237.8-174.5-297.3-297.3l-47.9-95.9V1043.3V-654l47.9-95.9c59.5-122.7,174.5-237.8,297.3-297.3l95.9-47.9l2195.9-9.6c2358.9-11.5,2314.8-9.6,2872.9-117c247.4-46,709.6-164.9,972.3-247.4c701.9-222.5,1612.9-667.4,2130.7-1043.3c207.1-149.6,339.5-164.9,469.9-55.6c115.1,97.8,113.2,74.8,113.2,1279.2V-188l209.1,7.7c226.3,5.7,270.4,23,354.8,138.1C9900,9.6,9900,30.7,9900,1043.3s0,1033.7-40.3,1085.5c-84.4,115.1-128.5,132.3-352.9,138.1l-211,7.7l-3.8,1281.1c-5.8,1260-5.8,1283-46,1334.8c-21.1,28.8-61.4,70.9-88.2,90.1C9100.3,5022.7,8944.9,5041.9,8879.7,5013.1z"/><path d="M1500-1745.2c-103.6-46-182.2-163-182.2-270.4c0-71,554.2-2502.7,583-2558.4c38.4-70.9,103.6-128.5,203.3-172.6c82.5-38.3,122.7-40.3,882.2-40.3c788.2,0,795.9,1.9,870.7,44.1c94,51.8,151.5,145.8,153.4,251.3c0,42.2-122.7,621.4-274.2,1286.8c-306.9,1355.9-301.1,1340.5-479.5,1432.6l-101.7,53.7h-799.7C1734-1720.3,1544.1-1726,1500-1745.2z"/></g></g></svg>